<svg xmlns="http://www.w3.org/2000/svg" viewBox="0 0 100 100"><defs><style>.cls-1{fill:#fff;}.cls-2,.cls-3{fill:none;}.cls-2{stroke:#000;stroke-miterlimit:10;stroke-width:0.14px;}</style></defs><title>Risorsa 3</title><g id="Livello_2" data-name="Livello 2"><g id="Livello_1-2" data-name="Livello 1"><path d="M45.76,70.88a2.13,2.13,0,0,1-2-1.32A58.1,58.1,0,0,0,32,51.52,25.42,25.42,0,0,1,50.29,8.6h.37a25.36,25.36,0,0,1,17.9,42.92,56.91,56.91,0,0,0-11.69,18,2.11,2.11,0,0,1-2,1.33Z"/><line class="cls-1" x1="38.79" y1="80.27" x2="62.63" y2="80.27"/><rect x="38.79" y="78.82" width="23.84" height="2.89" rx="1.44" ry="1.44"/><line class="cls-1" x1="38.79" y1="85.66" x2="62.63" y2="85.66"/><rect x="38.79" y="84.22" width="23.84" height="2.89" rx="1.44" ry="1.44"/><line class="cls-1" x1="41.24" y1="91.06" x2="59.45" y2="91.06"/><rect x="41.24" y="89.61" width="18.21" height="2.89" rx="1.44" ry="1.44"/><line class="cls-1" x1="45.29" y1="96.45" x2="56.56" y2="96.45"/><line class="cls-1" x1="46.44" y1="96.38" x2="54.82" y2="96.38"/><path d="M53.75,97.83H47.52c-.59,0-1.08-.65-1.08-1.45h0c0-.8.49-1.44,1.08-1.44h6.23c.59,0,1.07.64,1.07,1.44h0C54.82,97.18,54.34,97.83,53.75,97.83Z"/><path d="M60.51,76.66H40.19l-.36-1.13a51.75,51.75,0,0,0-12-20,31.14,31.14,0,1,1,44.92,0A50.9,50.9,0,0,0,60.94,75.31ZM42.29,73.77H58.4A53.84,53.84,0,0,1,70.64,53.53,28.24,28.24,0,0,0,50.7,5.72h-.42A28.25,28.25,0,0,0,29.9,53.52,54.75,54.75,0,0,1,42.29,73.77Z"/><path class="cls-2" d="M60.51,76.66H40.19l-.36-1.13a51.75,51.75,0,0,0-12-20,31.14,31.14,0,1,1,44.92,0A50.9,50.9,0,0,0,60.94,75.31ZM42.29,73.77H58.4A53.84,53.84,0,0,1,70.64,53.53,28.24,28.24,0,0,0,50.7,5.72h-.42A28.25,28.25,0,0,0,29.9,53.52,54.75,54.75,0,0,1,42.29,73.77Z"/><rect class="cls-3" width="100" height="100"/></g></g></svg>