<svg xmlns="http://www.w3.org/2000/svg" viewBox="0 0 100 100"><defs><style>.cls-1{fill:#fff;}.cls-2,.cls-3{fill:none;}.cls-2{stroke:#000;stroke-miterlimit:10;stroke-width:0.14px;}</style></defs><title>Risorsa 2</title><g id="Livello_2" data-name="Livello 2"><g id="Livello_1-2" data-name="Livello 1"><line class="cls-1" x1="46.62" y1="96.51" x2="54.97" y2="96.51"/><path d="M53.9,98H47.69c-.59,0-1.07-.65-1.07-1.44h0c0-.79.48-1.44,1.07-1.44H53.9c.59,0,1.07.65,1.07,1.44h0C55,97.3,54.49,98,53.9,98Z"/><line class="cls-1" x1="39" y1="80.47" x2="62.73" y2="80.47"/><rect x="39" y="79.03" width="23.73" height="2.88" rx="1.44" ry="1.44"/><line class="cls-1" x1="39" y1="85.84" x2="62.73" y2="85.84"/><rect x="39" y="84.4" width="23.73" height="2.88" rx="1.44" ry="1.44"/><line class="cls-1" x1="41.45" y1="91.21" x2="59.57" y2="91.21"/><rect x="41.45" y="89.77" width="18.12" height="2.88" rx="1.44" ry="1.44"/><path d="M60.62,76.88H40.4L40,75.75a51.56,51.56,0,0,0-12-19.91,31,31,0,1,1,44.71,0A50.66,50.66,0,0,0,61.05,75.53ZM42.49,74h16A53.79,53.79,0,0,1,70.71,53.85,28.11,28.11,0,0,0,50.86,6.26h-.42A28.12,28.12,0,0,0,30.15,53.85,54.46,54.46,0,0,1,42.49,74Z"/><path class="cls-2" d="M60.62,76.88H40.4L40,75.75a51.56,51.56,0,0,0-12-19.91,31,31,0,1,1,44.71,0A50.66,50.66,0,0,0,61.05,75.53ZM42.49,74h16A53.79,53.79,0,0,1,70.71,53.85,28.11,28.11,0,0,0,50.86,6.26h-.42A28.12,28.12,0,0,0,30.15,53.85,54.46,54.46,0,0,1,42.49,74Z"/><path d="M25.85,39.77A25.17,25.17,0,0,0,32.23,51.5,57.82,57.82,0,0,1,44,69.45a2.11,2.11,0,0,0,1.95,1.31h9.11a2.12,2.12,0,0,0,2-1.32A56.6,56.6,0,0,1,68.64,51.5,25.12,25.12,0,0,0,75,39.77Z"/><rect class="cls-3" x="2.59" y="2.59" width="94.82" height="94.82"/><rect class="cls-3" width="100" height="100"/></g></g></svg>