<svg xmlns="http://www.w3.org/2000/svg" viewBox="0 0 94.82 95.06"><defs><style>.cls-1{fill:#fff;}.cls-2{fill:none;}</style></defs><title>Risorsa 1</title><g id="Livello_2" data-name="Livello 2"><g id="Livello_1-2" data-name="Livello 1"><line class="cls-1" x1="36.04" y1="77.39" x2="59.84" y2="77.39"/><rect x="36.04" y="75.94" width="23.8" height="2.89" rx="1.44" ry="1.44"/><line class="cls-1" x1="36.04" y1="82.77" x2="59.84" y2="82.77"/><rect x="36.04" y="81.33" width="23.8" height="2.89" rx="1.44" ry="1.44"/><line class="cls-1" x1="38.49" y1="88.16" x2="56.67" y2="88.16"/><rect x="38.49" y="86.72" width="18.18" height="2.89" rx="1.44" ry="1.44"/><line class="cls-1" x1="43.4" y1="93.62" x2="51.76" y2="93.62"/><path d="M50.69,95.06H44.47c-.59,0-1.07-.65-1.07-1.44h0c0-.8.48-1.45,1.07-1.45h6.22c.59,0,1.07.65,1.07,1.45h0C51.76,94.41,51.28,95.06,50.69,95.06Z"/><path d="M57.73,73.78H37.43l-.35-1.13a51.56,51.56,0,0,0-12-20,31.09,31.09,0,1,1,44.85,0A50.9,50.9,0,0,0,58.15,72.43ZM39.54,70.89H55.62a53.87,53.87,0,0,1,12.23-20.2,28.21,28.21,0,1,0-40.69,0A54.65,54.65,0,0,1,39.54,70.89Z"/><rect class="cls-2" width="94.82" height="94.82"/></g></g></svg>