<?xml version="1.0" encoding="iso-8859-1"?>
<!-- Generator: Adobe Illustrator 18.0.0, SVG Export Plug-In . SVG Version: 6.00 Build 0)  -->
<!DOCTYPE svg PUBLIC "-//W3C//DTD SVG 1.1//EN" "http://www.w3.org/Graphics/SVG/1.1/DTD/svg11.dtd">
<svg version="1.1" id="Capa_1" xmlns="http://www.w3.org/2000/svg" xmlns:xlink="http://www.w3.org/1999/xlink" x="0px" y="0px"
	 viewBox="0 0 494.515 494.515" style="enable-background:new 0 0 494.515 494.515;" xml:space="preserve">
<path id="XMLID_200_" fill="white" d="M395.798,100.768c-13.76-19.496-33.884-33.587-56.892-39.875L303.113,51.1
	c20.978-6.854,39.364-20.032,52.151-38.141c1.948-2.751,2.012-6.41,0.18-9.232c-1.837-2.823-5.209-4.234-8.522-3.56L242.751,21.331
	c-2.922,0.594-4.999,3.143-4.999,6.11v1.135V54.19h-9.688c-3.441,0-6.23,2.792-6.23,6.231v1.532
	c-64.405,1.671-116.311,54.466-116.311,119.266V273.9c-5.063,4.558-8.311,11.096-8.311,18.456V401.74
	c0,13.77,11.147,24.923,24.925,24.923c13.777,0,24.924-11.153,24.924-24.923V292.356c0-7.36-3.248-13.898-8.306-18.456V181.22
	c0-46.466,37.012-84.192,83.078-85.87v1.071c0,3.439,2.789,6.229,6.23,6.229h9.688v31.138
	c-39.753,12.853-68.541,50.134-68.541,94.18v242.142c0,13.475,10.938,24.403,24.406,24.403h149.2
	c13.486,0,24.406-10.929,24.406-24.403V227.969c0-44.046-28.771-81.328-68.542-94.18V95.528l88.743,18.037
	c3.313,0.672,6.685-0.74,8.534-3.562C397.812,107.178,397.743,103.519,395.798,100.768z M313.562,275.392v129.812
	c0,8.221-6.655,14.88-14.881,14.88h-60.929c-8.212,0-14.88-6.659-14.88-14.88V275.392c0-8.22,6.668-14.882,14.88-14.882h60.929
	C306.906,260.511,313.562,267.173,313.562,275.392z"/>
<g>
</g>
<g>
</g>
<g>
</g>
<g>
</g>
<g>
</g>
<g>
</g>
<g>
</g>
<g>
</g>
<g>
</g>
<g>
</g>
<g>
</g>
<g>
</g>
<g>
</g>
<g>
</g>
<g>
</g>
</svg>
